<svg width="27" height="27" viewBox="0 0 27 27" fill="none" xmlns="http://www.w3.org/2000/svg">
<path d="M13.125 2.37199C16.6039 2.37199 17.0783 2.37199 18.5015 2.37199C19.7666 2.37199 20.3991 2.68825 20.8735 2.84639C21.506 3.16265 21.9804 3.32078 22.4548 3.79518C22.9292 4.26958 23.2455 4.74398 23.4036 5.37651C23.5618 5.85091 23.7199 6.48343 23.878 7.7485C23.878 9.17169 23.878 9.48795 23.878 13.125C23.878 16.7621 23.878 17.0783 23.878 18.5015C23.878 19.7666 23.5618 20.3991 23.4036 20.8735C23.0874 21.506 22.9292 21.9804 22.4548 22.4548C21.9804 22.9292 21.506 23.2455 20.8735 23.4036C20.3991 23.5618 19.7666 23.7199 18.5015 23.878C17.0783 23.878 16.7621 23.878 13.125 23.878C9.48795 23.878 9.17169 23.878 7.7485 23.878C6.48343 23.878 5.85091 23.5618 5.37651 23.4036C4.74398 23.0874 4.26958 22.9292 3.79518 22.4548C3.32078 21.9804 3.00452 21.506 2.84639 20.8735C2.68825 20.3991 2.53012 19.7666 2.37199 18.5015C2.37199 17.0783 2.37199 16.7621 2.37199 13.125C2.37199 9.48795 2.37199 9.17169 2.37199 7.7485C2.37199 6.48343 2.68825 5.85091 2.84639 5.37651C3.16265 4.74398 3.32078 4.26958 3.79518 3.79518C4.26958 3.32078 4.74398 3.00452 5.37651 2.84639C5.85091 2.68825 6.48343 2.53012 7.7485 2.37199C9.17169 2.37199 9.64609 2.37199 13.125 2.37199ZM13.125 0C9.48795 0 9.17169 0 7.7485 0C6.3253 0 5.37651 0.316266 4.58584 0.632531C3.79518 0.948796 3.00452 1.42319 2.21386 2.21386C1.42319 3.00452 1.10693 3.63705 0.632531 4.58584C0.316266 5.37651 0.158133 6.3253 0 7.7485C0 9.17169 0 9.64609 0 13.125C0 16.7621 0 17.0783 0 18.5015C0 19.9247 0.316266 20.8735 0.632531 21.6642C0.948796 22.4548 1.42319 23.2455 2.21386 24.0361C3.00452 24.8268 3.63705 25.1431 4.58584 25.6175C5.37651 25.9337 6.3253 26.0919 7.7485 26.25C9.17169 26.25 9.64609 26.25 13.125 26.25C16.6039 26.25 17.0783 26.25 18.5015 26.25C19.9247 26.25 20.8735 25.9337 21.6642 25.6175C22.4548 25.3012 23.2455 24.8268 24.0361 24.0361C24.8268 23.2455 25.1431 22.613 25.6175 21.6642C25.9337 20.8735 26.0919 19.9247 26.25 18.5015C26.25 17.0783 26.25 16.6039 26.25 13.125C26.25 9.64609 26.25 9.17169 26.25 7.7485C26.25 6.3253 25.9337 5.37651 25.6175 4.58584C25.3012 3.79518 24.8268 3.00452 24.0361 2.21386C23.2455 1.42319 22.613 1.10693 21.6642 0.632531C20.8735 0.316266 19.9247 0.158133 18.5015 0C17.0783 0 16.7621 0 13.125 0Z" fill="white"/>
<path d="M13.125 6.3253C9.32982 6.3253 6.3253 9.32982 6.3253 13.125C6.3253 16.9202 9.32982 19.9247 13.125 19.9247C16.9202 19.9247 19.9247 16.9202 19.9247 13.125C19.9247 9.32982 16.9202 6.3253 13.125 6.3253ZM13.125 17.5527C10.753 17.5527 8.69729 15.6551 8.69729 13.125C8.69729 10.753 10.5949 8.69729 13.125 8.69729C15.497 8.69729 17.5527 10.5949 17.5527 13.125C17.5527 15.497 15.497 17.5527 13.125 17.5527Z" fill="white"/>
<path d="M20.0828 7.7485C20.9562 7.7485 21.6642 7.04051 21.6642 6.16717C21.6642 5.29383 20.9562 4.58584 20.0828 4.58584C19.2095 4.58584 18.5015 5.29383 18.5015 6.16717C18.5015 7.04051 19.2095 7.7485 20.0828 7.7485Z" fill="white"/>
</svg>
