<svg width="24" height="28" viewBox="0 0 24 28" fill="none" xmlns="http://www.w3.org/2000/svg">
<path d="M18.4818 12.746C18.3625 12.6887 18.2417 12.6342 18.1195 12.5827C17.9067 8.67109 15.7614 6.43242 12.1583 6.40951C12.1424 6.40951 12.1252 6.40951 12.1094 6.40951C9.95407 6.40951 8.16253 7.32617 7.05972 8.99336L9.04105 10.3469C9.86492 9.10221 11.1575 8.83581 12.1108 8.83581C12.1223 8.83581 12.1324 8.83581 12.1439 8.83581C13.3301 8.84297 14.2244 9.18672 14.8039 9.85703C15.2251 10.3454 15.5069 11.0186 15.6464 11.8694C14.5954 11.6918 13.458 11.6359 12.2416 11.7061C8.81675 11.9023 6.61543 13.8918 6.76209 16.6576C6.83686 18.0598 7.53852 19.2672 8.73767 20.0549C9.75133 20.721 11.0554 21.0475 12.4127 20.973C14.2043 20.8757 15.609 20.1939 16.5896 18.9492C17.3344 18.0039 17.8046 16.7793 18.0131 15.2353C18.8671 15.748 19.4998 16.4241 19.8492 17.2362C20.443 18.6155 20.4775 20.8842 18.6198 22.7333C16.9922 24.3533 15.0353 25.0536 12.0792 25.0751C8.79949 25.0508 6.31924 24.0038 4.706 21.9613C3.19629 20.0492 2.41555 17.2863 2.38679 13.7514C2.41555 10.2165 3.19629 7.45365 4.706 5.54154C6.31924 3.49909 8.79949 2.45208 12.0792 2.42773C15.3819 2.45208 17.9067 3.50482 19.5803 5.55729C20.4013 6.56419 21.0196 7.82891 21.4279 9.30417L23.75 8.68685C23.2554 6.8707 22.4775 5.30521 21.4178 4.00755C19.2726 1.37643 16.1324 0.0286458 12.0878 0H12.072C8.03457 0.0272135 4.9303 1.38073 2.84546 4.02188C0.989224 6.37227 0.0316322 9.64219 0 13.74V13.75V13.76C0.0316322 17.8592 0.989224 21.1292 2.84546 23.4781C4.9303 26.1193 8.03457 27.4714 12.072 27.5H12.0878C15.6766 27.4757 18.2057 26.5389 20.2906 24.465C23.0167 21.7508 22.9348 18.3505 22.0361 16.2622C21.392 14.7655 20.1626 13.5495 18.4818 12.746ZM12.2848 18.5496C10.7837 18.6341 9.22365 17.9624 9.14745 16.5243C9.08993 15.4587 9.90949 14.2685 12.3768 14.1267C12.6601 14.1109 12.9361 14.1023 13.2093 14.1023C14.1065 14.1023 14.9448 14.1897 15.7068 14.3544C15.4221 17.8922 13.7542 18.4665 12.2848 18.5467V18.5496Z" fill="#1F222E"/>
</svg>
