<svg width="30" height="30" viewBox="0 0 30 30" fill="none" xmlns="http://www.w3.org/2000/svg">
<path d="M21.6068 13.996C21.4875 13.9387 21.3667 13.8842 21.2445 13.8327C21.0317 9.92109 18.8864 7.68242 15.2833 7.65951C15.2674 7.65951 15.2502 7.65951 15.2344 7.65951C13.0791 7.65951 11.2875 8.57617 10.1847 10.2434L12.166 11.5969C12.9899 10.3522 14.2825 10.0858 15.2358 10.0858C15.2473 10.0858 15.2574 10.0858 15.2689 10.0858C16.4551 10.093 17.3494 10.4367 17.9289 11.107C18.3501 11.5954 18.6319 12.2686 18.7714 13.1194C17.7204 12.9418 16.583 12.8859 15.3666 12.9561C11.9417 13.1523 9.74043 15.1418 9.88709 17.9076C9.96186 19.3098 10.6635 20.5172 11.8627 21.3049C12.8763 21.971 14.1804 22.2975 15.5377 22.223C17.3293 22.1257 18.734 21.4439 19.7146 20.1992C20.4594 19.2539 20.9296 18.0293 21.1381 16.4853C21.9921 16.998 22.6248 17.6741 22.9742 18.4862C23.568 19.8655 23.6025 22.1342 21.7448 23.9833C20.1172 25.6033 18.1603 26.3036 15.2042 26.3251C11.9245 26.3008 9.44424 25.2538 7.831 23.2113C6.32129 21.2992 5.54055 18.5363 5.51179 15.0014C5.54055 11.4665 6.32129 8.70365 7.831 6.79154C9.44424 4.74909 11.9245 3.70208 15.2042 3.67773C18.5069 3.70208 21.0317 4.75482 22.7053 6.80729C23.5263 7.81419 24.1446 9.07891 24.5529 10.5542L26.875 9.93685C26.3804 8.1207 25.6025 6.55521 24.5428 5.25755C22.3976 2.62643 19.2574 1.27865 15.2128 1.25H15.197C11.1596 1.27721 8.0553 2.63073 5.97046 5.27187C4.11422 7.62227 3.15663 10.8922 3.125 14.99V15V15.01C3.15663 19.1092 4.11422 22.3792 5.97046 24.7281C8.0553 27.3693 11.1596 28.7214 15.197 28.75H15.2128C18.8016 28.7257 21.3307 27.7889 23.4156 25.715C26.1417 23.0008 26.0598 19.6005 25.1611 17.5122C24.517 16.0155 23.2876 14.7995 21.6068 13.996ZM15.4098 19.7996C13.9087 19.8841 12.3486 19.2124 12.2724 17.7743C12.2149 16.7087 13.0345 15.5185 15.5018 15.3767C15.7851 15.3609 16.0611 15.3523 16.3343 15.3523C17.2315 15.3523 18.0698 15.4397 18.8318 15.6044C18.5471 19.1422 16.8792 19.7165 15.4098 19.7967V19.7996Z" fill="white"/>
</svg>
