<svg width="23" height="28" viewBox="0 0 23 28" fill="none" xmlns="http://www.w3.org/2000/svg">
<path fill-rule="evenodd" clip-rule="evenodd" d="M5.50256 21.1758C5.52701 21.1982 5.55274 21.2211 5.57677 21.2436C5.80239 21.4068 5.96668 21.6361 6.18372 21.8122C6.85802 22.3563 7.61511 22.6525 8.48415 22.706C10.5427 22.833 12.3361 21.2742 12.569 19.2258C12.5801 19.126 12.5759 19.0254 12.5759 18.9261V0.417232C12.5761 0.14002 12.7137 0.00141375 12.9885 0.00141375C13.9197 0.00141375 14.8514 0.00055016 15.7818 0.00227734C15.8684 0.00227734 15.9602 -0.0141309 16.0396 0.0411389C16.0456 0.0454568 16.0507 0.0506384 16.0567 0.0532291C16.1009 0.099863 16.1138 0.159019 16.1271 0.21947C16.484 1.88188 17.3534 3.20879 18.7162 4.21012C18.802 4.27316 18.8732 4.35088 18.9551 4.41781C19.0143 4.4679 19.0735 4.51971 19.1336 4.5698C19.1756 4.56678 19.2061 4.59269 19.2387 4.61125C19.9271 5.00764 20.6636 5.26758 21.4443 5.39798C21.7493 5.44807 22.0573 5.48218 22.3674 5.47916C22.4969 5.47787 22.5008 5.48219 22.4999 5.60611V5.78271L22.4931 6.47272L22.4999 6.47877V11.2376L22.406 11.2255C21.5082 11.1063 20.634 10.8852 19.7894 10.5536C18.9813 10.2354 18.2203 9.83079 17.5053 9.33552C17.4611 9.30486 17.4156 9.27723 17.3462 9.23319V9.43354C17.3462 12.5524 17.3492 15.6712 17.3453 18.7888C17.3444 20.4508 16.9168 21.9949 16.0353 23.4038C14.9711 25.1055 13.4951 26.3029 11.618 26.9877C10.4796 27.4057 9.30043 27.5659 8.08952 27.4757C6.04732 27.3237 4.2805 26.5382 2.77576 25.1444C2.73587 25.1077 2.70112 25.0645 2.66466 25.0235C2.59217 24.9596 2.52182 24.8961 2.45019 24.8326C1.91058 24.384 1.53525 23.8024 1.18523 23.2078C0.645618 22.292 0.295599 21.3019 0.124451 20.2504C0.027509 19.6489 -0.0226775 19.0427 0.0099223 18.4347C0.117158 16.4744 0.772157 14.7243 2.02768 13.2117C3.0816 11.9436 4.39803 11.0571 5.94823 10.5243C7.29169 10.0609 8.4404 10.0428 9.79587 10.1935C9.86364 10.2017 9.8808 10.2324 9.87951 10.2911C9.87779 10.3248 9.87951 10.3576 9.87951 10.3917C9.87951 11.8697 9.87951 13.3473 9.87865 14.8254C9.87865 14.8793 9.89281 14.9372 9.85849 14.9959C9.66461 14.9588 9.47501 14.9005 9.2777 14.8729C8.14443 14.7127 7.12097 14.9795 6.22233 15.6924C5.43264 16.3189 4.94708 17.1415 4.78408 18.1377C4.61078 19.1956 4.82826 20.1766 5.43178 21.0644C5.45752 21.1002 5.47897 21.1382 5.50213 21.1762L5.50256 21.1758Z" fill="#1F222E"/>
</svg>
