<svg width="30" height="30" viewBox="0 0 30 30" fill="none" xmlns="http://www.w3.org/2000/svg">
<path fill-rule="evenodd" clip-rule="evenodd" d="M9.25256 22.4258C9.27701 22.4482 9.30274 22.4711 9.32677 22.4936C9.55239 22.6568 9.71668 22.8861 9.93372 23.0622C10.608 23.6063 11.3651 23.9025 12.2342 23.956C14.2927 24.083 16.0861 22.5242 16.319 20.4758C16.3301 20.376 16.3259 20.2754 16.3259 20.1761V1.66723C16.3261 1.39002 16.4637 1.25141 16.7385 1.25141C17.6697 1.25141 18.6014 1.25055 19.5318 1.25228C19.6184 1.25228 19.7102 1.23587 19.7896 1.29114C19.7956 1.29546 19.8007 1.30064 19.8067 1.30323C19.8509 1.34986 19.8638 1.40902 19.8771 1.46947C20.234 3.13188 21.1034 4.45879 22.4662 5.46012C22.552 5.52316 22.6232 5.60088 22.7051 5.66781C22.7643 5.7179 22.8235 5.76971 22.8836 5.8198C22.9256 5.81678 22.9561 5.84269 22.9887 5.86125C23.6771 6.25764 24.4136 6.51758 25.1943 6.64798C25.4993 6.69807 25.8073 6.73218 26.1174 6.72916C26.2469 6.72787 26.2508 6.73219 26.2499 6.85611V7.03271L26.2431 7.72272L26.2499 7.72877V12.4876L26.156 12.4755C25.2582 12.3563 24.384 12.1352 23.5394 11.8036C22.7313 11.4854 21.9703 11.0808 21.2553 10.5855C21.2111 10.5549 21.1656 10.5272 21.0962 10.4832V10.6835C21.0962 13.8024 21.0992 16.9212 21.0953 20.0388C21.0944 21.7008 20.6668 23.2449 19.7853 24.6538C18.7211 26.3555 17.2451 27.5529 15.368 28.2377C14.2296 28.6557 13.0504 28.8159 11.8395 28.7257C9.79732 28.5737 8.0305 27.7882 6.52576 26.3944C6.48587 26.3577 6.45112 26.3145 6.41466 26.2735C6.34217 26.2096 6.27182 26.1461 6.20019 26.0826C5.66058 25.634 5.28525 25.0524 4.93523 24.4578C4.39562 23.542 4.0456 22.5519 3.87445 21.5004C3.77751 20.8989 3.72732 20.2927 3.75992 19.6847C3.86716 17.7244 4.52216 15.9743 5.77768 14.4617C6.8316 13.1936 8.14803 12.3071 9.69823 11.7743C11.0417 11.3109 12.1904 11.2928 13.5459 11.4435C13.6136 11.4517 13.6308 11.4824 13.6295 11.5411C13.6278 11.5748 13.6295 11.6076 13.6295 11.6417C13.6295 13.1197 13.6295 14.5973 13.6287 16.0754C13.6287 16.1293 13.6428 16.1872 13.6085 16.2459C13.4146 16.2088 13.225 16.1505 13.0277 16.1229C11.8944 15.9627 10.871 16.2295 9.97233 16.9424C9.18264 17.5689 8.69708 18.3915 8.53408 19.3877C8.36078 20.4456 8.57826 21.4266 9.18178 22.3144C9.20752 22.3502 9.22897 22.3882 9.25213 22.4262L9.25256 22.4258Z" fill="white"/>
</svg>
