<svg width="30" height="30" viewBox="0 0 30 30" fill="none" xmlns="http://www.w3.org/2000/svg">
<path fill-rule="evenodd" clip-rule="evenodd" d="M25.3684 4.62145C22.7834 2.04508 19.3459 0.62652 15.6831 0.625C8.13507 0.625 1.99264 6.73713 1.98958 14.2511C1.98806 16.6526 2.61903 18.9971 3.81757 21.0634L1.875 28.125L9.13347 26.2305C11.1333 27.3169 13.3853 27.8878 15.6769 27.8886H15.6831C23.2295 27.8886 29.3727 21.7757 29.375 14.2625C29.3765 10.6211 27.9534 7.19782 25.3684 4.62221V4.62145ZM15.6831 25.5874H15.6785C13.6366 25.5874 11.6337 25.0408 9.8859 24.0084L9.47035 23.7629L5.16278 24.8872L6.31243 20.7076L6.04201 20.2788C4.90306 18.4756 4.30111 16.3911 4.30187 14.2511C4.30417 8.00668 9.41 2.92617 15.6876 2.92617C18.7272 2.92769 21.5849 4.10678 23.7337 6.24831C25.8825 8.38907 27.065 11.2353 27.0635 14.261C27.0604 20.5061 21.9553 25.5866 15.6831 25.5866V25.5874ZM21.9256 17.1049C21.5833 16.9346 19.9012 16.1113 19.5873 15.9973C19.2733 15.8833 19.0457 15.827 18.8181 16.1676C18.5904 16.5089 17.9342 17.276 17.7349 17.5025C17.5355 17.7298 17.3353 17.758 16.9939 17.5877C16.6517 17.4174 15.5494 17.0578 14.2424 15.8977C13.2256 14.9946 12.5389 13.8801 12.3387 13.5388C12.1394 13.1974 12.3174 13.0135 12.4885 12.8439C12.642 12.6911 12.8307 12.4463 13.0018 12.2472C13.1729 12.0487 13.2294 11.9058 13.344 11.6793C13.4586 11.452 13.4013 11.2536 13.3158 11.0825C13.2302 10.9122 12.5465 9.23595 12.2608 8.5548C11.9828 7.89113 11.7009 7.98084 11.4916 7.97019C11.2922 7.96031 11.0638 7.95879 10.8354 7.95879C10.607 7.95879 10.2365 8.04393 9.92257 8.38451C9.60861 8.72585 8.72479 9.54916 8.72479 11.2247C8.72479 12.9002 9.95083 14.5194 10.1219 14.7475C10.2931 14.9748 12.5351 18.414 15.9665 19.8888C16.7823 20.2401 17.4201 20.4491 17.9174 20.6065C18.7371 20.8657 19.4826 20.8292 20.0724 20.7418C20.7293 20.6437 22.0967 19.9177 22.3816 19.1225C22.6665 18.3274 22.6665 17.6454 22.581 17.5033C22.4954 17.3611 22.267 17.276 21.9248 17.1057V17.1042L21.9256 17.1049Z" fill="white"/>
</svg>
