<svg width="28" height="28" viewBox="0 0 28 28" fill="none" xmlns="http://www.w3.org/2000/svg">
<path fill-rule="evenodd" clip-rule="evenodd" d="M23.4934 3.99645C20.9084 1.42008 17.4709 0.00152043 13.8081 0C6.26007 0 0.117639 6.11213 0.114583 13.6261C0.113056 16.0276 0.744028 18.3721 1.94257 20.4384L0 27.5L7.25847 25.6055C9.25833 26.6919 11.5103 27.2628 13.8019 27.2636H13.8081C21.3545 27.2636 27.4977 21.1507 27.5 13.6375C27.5015 9.99606 26.0784 6.57282 23.4934 3.99721V3.99645ZM13.8081 24.9624H13.8035C11.7616 24.9624 9.75868 24.4158 8.0109 23.3834L7.59535 23.1379L3.28778 24.2622L4.43743 20.0826L4.16701 19.6538C3.02806 17.8506 2.42611 15.7661 2.42687 13.6261C2.42917 7.38168 7.535 2.30117 13.8126 2.30117C16.8522 2.30269 19.7099 3.48178 21.8587 5.62331C24.0075 7.76407 25.19 10.6103 25.1885 13.636C25.1854 19.8811 20.0803 24.9616 13.8081 24.9616V24.9624ZM20.0506 16.4799C19.7083 16.3096 18.0262 15.4863 17.7123 15.3723C17.3983 15.2583 17.1707 15.202 16.9431 15.5426C16.7154 15.8839 16.0592 16.651 15.8599 16.8775C15.6605 17.1048 15.4603 17.133 15.1189 16.9627C14.7767 16.7924 13.6744 16.4328 12.3674 15.2727C11.3506 14.3696 10.6639 13.2551 10.4637 12.9138C10.2644 12.5724 10.4424 12.3885 10.6135 12.2189C10.767 12.0661 10.9557 11.8213 11.1268 11.6222C11.2979 11.4237 11.3544 11.2808 11.469 11.0543C11.5836 10.827 11.5263 10.6286 11.4408 10.4575C11.3552 10.2872 10.6715 8.61095 10.3858 7.9298C10.1078 7.26613 9.8259 7.35584 9.6166 7.34519C9.41722 7.33531 9.18882 7.33379 8.96042 7.33379C8.73201 7.33379 8.36153 7.41893 8.04757 7.75951C7.73361 8.10085 6.84979 8.92416 6.84979 10.5997C6.84979 12.2752 8.07583 13.8944 8.24694 14.1225C8.41805 14.3498 10.6601 17.789 14.0915 19.2638C14.9073 19.6151 15.5451 19.8241 16.0424 19.9815C16.8621 20.2407 17.6076 20.2042 18.1974 20.1168C18.8543 20.0187 20.2217 19.2927 20.5066 18.4975C20.7915 17.7024 20.7915 17.0204 20.706 16.8783C20.6204 16.7361 20.392 16.651 20.0498 16.4807V16.4792L20.0506 16.4799Z" fill="#1F222E"/>
</svg>
