<svg width="526" height="526" viewBox="0 0 526 526" fill="none" xmlns="http://www.w3.org/2000/svg">
<g opacity="0.1">
<path d="M336.602 490.471C288.469 506.111 236.619 506.111 188.486 490.471C140.352 474.832 98.4052 444.356 68.657 403.411C38.9088 362.466 22.8865 313.154 22.8865 262.544C22.8865 211.933 38.9088 162.622 68.657 121.677C98.4052 80.7317 140.352 50.2555 188.486 34.616C236.619 18.9764 288.468 18.9764 336.602 34.616C384.736 50.2555 426.683 80.7317 456.431 121.677C486.179 162.622 502.201 211.933 502.201 262.544" stroke="#0D0F45" stroke-width="4"/>
<path d="M302.087 76.5046C341.375 84.8554 377.01 105.429 403.886 135.278C430.762 165.127 447.498 202.717 451.697 242.663C455.895 282.608 447.34 322.857 427.257 357.641C407.175 392.425 376.596 419.959 339.903 436.296C303.21 452.632 262.287 456.933 223 448.583C183.712 440.232 148.077 419.658 121.201 389.809C94.3251 359.96 77.5886 322.37 73.3902 282.424C69.1918 242.479 77.747 202.23 97.8296 167.446" stroke="#0D0F45" stroke-width="4"/>
<path d="M167.839 367.724C145.627 347.724 130.317 321.206 124.103 291.97C117.889 262.735 121.089 232.282 133.246 204.977C145.403 177.672 165.892 154.916 191.777 139.972C217.662 125.027 247.613 118.661 277.338 121.785C307.063 124.91 335.037 137.364 357.248 157.364C379.46 177.363 394.77 203.881 400.985 233.117C407.199 262.353 403.998 292.806 391.841 320.111C379.684 347.416 359.195 370.171 333.311 385.116" stroke="#0D0F45" stroke-width="4"/>
</g>
</svg>
