<svg width="661" height="762" viewBox="0 0 661 762" fill="none" xmlns="http://www.w3.org/2000/svg">
<g opacity="0.2">
<path d="M387.502 712.26C317.506 735.003 242.106 735.003 172.11 712.26C102.114 689.517 41.1143 645.198 -2.14577 585.656C-45.4058 526.114 -68.7056 454.405 -68.7056 380.806C-68.7056 307.208 -45.4059 235.499 -2.14581 175.956C41.1142 116.414 102.114 72.0952 172.11 49.3521C242.106 26.6089 317.506 26.6089 387.502 49.352C457.498 72.0952 518.498 116.414 561.758 175.956C605.018 235.499 628.317 307.208 628.317 380.806" stroke="#0384FA" stroke-width="4"/>
<path d="M337.349 110.085C394.52 122.237 446.376 152.176 485.485 195.611C524.595 239.046 548.949 293.748 555.059 351.875C561.168 410.003 548.719 468.573 519.495 519.19C490.271 569.808 445.773 609.874 392.378 633.647C338.983 657.42 279.433 663.679 222.262 651.527C165.091 639.375 113.235 609.436 74.1261 566.001C35.0168 522.565 10.6621 467.864 4.55266 409.736C-1.55681 351.608 10.8926 293.039 40.1165 242.421" stroke="#0384FA" stroke-width="4"/>
<path d="M141.839 534.034C109.48 504.898 87.1761 466.266 78.1231 423.675C69.0701 381.084 73.7329 336.72 91.4433 296.942C109.154 257.164 139.002 224.013 176.711 202.242C214.421 180.471 258.054 171.196 301.358 175.747C344.662 180.299 385.414 198.443 417.772 227.578C450.131 256.714 472.435 295.346 481.488 337.937C490.541 380.528 485.878 424.892 468.168 464.671C450.458 504.449 420.609 537.599 382.9 559.37" stroke="#0384FA" stroke-width="4"/>
</g>
</svg>
