<svg width="41" height="43" viewBox="0 0 41 43" fill="none" xmlns="http://www.w3.org/2000/svg">
<g clip-path="url(#clip0_336_611)">
<mask id="path-1-inside-1_336_611" fill="white">
<path d="M28.1162 27.1542C29.17 25.5746 29.7891 23.6537 29.7891 21.584C29.7891 16.2123 25.6219 11.8418 20.5 11.8418C15.3781 11.8418 11.2109 16.2123 11.2109 21.584C11.2109 26.956 15.3781 31.3262 20.5 31.3262C22.4941 31.3262 24.3434 30.6635 25.8587 29.5376L31.9199 35.8945C32.2324 36.2222 32.6425 36.3862 33.0522 36.3862C33.462 36.3862 33.8721 36.2222 34.1846 35.8945C34.8102 35.2383 34.8102 34.1748 34.1846 33.519L28.1162 27.1542ZM14.4141 21.584C14.4141 18.0645 17.1442 15.2012 20.5 15.2012C23.8558 15.2012 26.5859 18.0645 26.5859 21.584C26.5859 25.1035 23.8558 27.9668 20.5 27.9668C17.1442 27.9668 14.4141 25.1035 14.4141 21.584ZM41 20.6602V22.3398C41 25.1185 38.8448 27.3789 36.1953 27.3789H35.3886C35.2585 27.3789 35.1593 27.4304 35.0992 27.4737C34.3698 27.9986 33.3729 27.8037 32.8727 27.0384C32.3722 26.2737 32.558 25.2278 33.2875 24.7032C33.9096 24.2561 34.636 24.0195 35.3886 24.0195H36.1953C37.0784 24.0195 37.7969 23.266 37.7969 22.3398V20.6602C37.7969 19.734 37.0784 18.9805 36.1953 18.9805H35.3886C33.8746 18.9805 32.5205 18.0248 31.938 16.5462L31.9283 16.5216C31.3431 15.0434 31.6562 13.3627 32.7266 12.2401L33.2972 11.642C33.9215 10.9869 33.9215 9.92131 33.2972 9.26649L32.1645 8.0789C31.862 7.76167 31.4598 7.58681 31.0322 7.58681C30.6042 7.58681 30.202 7.76134 29.8998 8.0789L29.3292 8.67696C28.2588 9.7996 26.6563 10.1283 25.2468 9.51385L25.223 9.50368C23.8135 8.89316 22.9023 7.47297 22.9023 5.88514V5.03906C22.9023 4.11294 22.1838 3.35938 21.3008 3.35938H19.6992C18.8162 3.35938 18.0977 4.11294 18.0977 5.03906V5.88514C18.0977 7.47297 17.1865 8.89316 15.7766 9.50368L15.7563 9.51254C14.3434 10.128 12.7412 9.7996 11.6708 8.67696L11.1002 8.07858C10.798 7.76134 10.3958 7.58681 9.96785 7.58681C9.54025 7.58681 9.13798 7.76134 8.83549 8.07858L7.70283 9.26649C7.07847 9.92131 7.07847 10.9869 7.70283 11.642L8.27338 12.2401C9.3438 13.3627 9.65692 15.0434 9.07135 16.522L9.06165 16.5469C8.47952 18.0248 7.12539 18.9805 5.61141 18.9805H4.80469C3.92164 18.9805 3.20312 19.734 3.20312 20.6602V22.3398C3.20312 23.266 3.92164 24.0195 4.80469 24.0195H5.61141C7.12508 24.0195 8.47952 24.9752 9.06165 26.4538L9.07354 26.4833C9.65692 27.9566 9.3438 29.6373 8.27338 30.7599L7.70283 31.358C7.40034 31.6752 7.23393 32.0971 7.23393 32.5459C7.23393 32.9944 7.40034 33.4163 7.70283 33.7335L8.83549 34.9214C9.45985 35.5762 10.4758 35.5766 11.1005 34.9214L11.6708 34.323C12.7406 33.2014 14.3418 32.8723 15.751 33.4852L15.7716 33.494C17.1868 34.1068 18.0977 35.5274 18.0977 37.1149V37.9609C18.0977 38.8871 18.8162 39.6406 19.6992 39.6406H21.3008C22.1838 39.6406 22.9023 38.8871 22.9023 37.9609V37.1149C22.9023 36.3255 23.1279 35.5634 23.5545 34.9113C24.0547 34.1462 25.0516 33.9513 25.7811 34.4762C26.5106 35.0008 26.6964 36.0464 26.1959 36.8114C26.1546 36.8744 26.1055 36.9784 26.1055 37.1149V37.9609C26.1055 40.7396 23.9502 43 21.3008 43H19.6992C17.0498 43 14.8945 40.7396 14.8945 37.9609V37.1149C14.8945 36.8924 14.761 36.6907 14.5539 36.6011L14.5248 36.5883C14.3168 36.4978 14.0856 36.5411 13.9358 36.6985L13.3652 37.2969C11.4921 39.2614 8.44386 39.2614 6.57047 37.2969L5.43781 36.109C4.53036 35.1573 4.03081 33.892 4.03081 32.5459C4.03081 31.1999 4.53036 29.9345 5.43812 28.9828L6.00836 28.3844C6.1582 28.2273 6.19949 27.9848 6.11346 27.767L6.10033 27.7342C6.01587 27.519 5.82349 27.3789 5.61141 27.3789H4.80469C2.15523 27.3789 0 25.1185 0 22.3398V20.6602C0 17.8815 2.15523 15.6211 4.80469 15.6211H5.61141C5.82349 15.6211 6.01587 15.481 6.10126 15.2642L6.11315 15.2337C6.1998 15.0155 6.15851 14.773 6.00836 14.6156L5.43812 14.0175C3.56473 12.0527 3.56473 8.85576 5.43812 6.89098L6.57047 5.70339C7.47823 4.75168 8.68472 4.22743 9.96785 4.22743C11.2513 4.22743 12.4578 4.75168 13.3655 5.70339L13.9358 6.30145C14.0859 6.45892 14.3171 6.50223 14.5248 6.41168L14.5536 6.39889C14.761 6.30933 14.8945 6.10757 14.8945 5.88514V5.03906C14.8945 2.26036 17.0501 0 19.6992 0H21.3008C23.9502 0 26.1055 2.26036 26.1055 5.03906V5.88514C26.1055 6.10757 26.239 6.30933 26.4458 6.39889L26.4783 6.41299C26.6832 6.50223 26.9144 6.45892 27.0642 6.30145L27.6348 5.70339C28.5422 4.75135 29.7487 4.22743 31.0322 4.22743C32.3153 4.22743 33.5221 4.75135 34.4295 5.70339L35.5619 6.89098C37.4353 8.85576 37.4353 12.0527 35.5619 14.0172L34.9916 14.6156C34.8415 14.7727 34.8002 15.0152 34.8865 15.2333L34.8984 15.2635C34.9841 15.4807 35.1765 15.6211 35.3886 15.6211H36.1953C38.8448 15.6211 41 17.8815 41 20.6602Z"/>
</mask>
<path d="M28.1162 27.1542C29.17 25.5746 29.7891 23.6537 29.7891 21.584C29.7891 16.2123 25.6219 11.8418 20.5 11.8418C15.3781 11.8418 11.2109 16.2123 11.2109 21.584C11.2109 26.956 15.3781 31.3262 20.5 31.3262C22.4941 31.3262 24.3434 30.6635 25.8587 29.5376L31.9199 35.8945C32.2324 36.2222 32.6425 36.3862 33.0522 36.3862C33.462 36.3862 33.8721 36.2222 34.1846 35.8945C34.8102 35.2383 34.8102 34.1748 34.1846 33.519L28.1162 27.1542ZM14.4141 21.584C14.4141 18.0645 17.1442 15.2012 20.5 15.2012C23.8558 15.2012 26.5859 18.0645 26.5859 21.584C26.5859 25.1035 23.8558 27.9668 20.5 27.9668C17.1442 27.9668 14.4141 25.1035 14.4141 21.584ZM41 20.6602V22.3398C41 25.1185 38.8448 27.3789 36.1953 27.3789H35.3886C35.2585 27.3789 35.1593 27.4304 35.0992 27.4737C34.3698 27.9986 33.3729 27.8037 32.8727 27.0384C32.3722 26.2737 32.558 25.2278 33.2875 24.7032C33.9096 24.2561 34.636 24.0195 35.3886 24.0195H36.1953C37.0784 24.0195 37.7969 23.266 37.7969 22.3398V20.6602C37.7969 19.734 37.0784 18.9805 36.1953 18.9805H35.3886C33.8746 18.9805 32.5205 18.0248 31.938 16.5462L31.9283 16.5216C31.3431 15.0434 31.6562 13.3627 32.7266 12.2401L33.2972 11.642C33.9215 10.9869 33.9215 9.92131 33.2972 9.26649L32.1645 8.0789C31.862 7.76167 31.4598 7.58681 31.0322 7.58681C30.6042 7.58681 30.202 7.76134 29.8998 8.0789L29.3292 8.67696C28.2588 9.7996 26.6563 10.1283 25.2468 9.51385L25.223 9.50368C23.8135 8.89316 22.9023 7.47297 22.9023 5.88514V5.03906C22.9023 4.11294 22.1838 3.35938 21.3008 3.35938H19.6992C18.8162 3.35938 18.0977 4.11294 18.0977 5.03906V5.88514C18.0977 7.47297 17.1865 8.89316 15.7766 9.50368L15.7563 9.51254C14.3434 10.128 12.7412 9.7996 11.6708 8.67696L11.1002 8.07858C10.798 7.76134 10.3958 7.58681 9.96785 7.58681C9.54025 7.58681 9.13798 7.76134 8.83549 8.07858L7.70283 9.26649C7.07847 9.92131 7.07847 10.9869 7.70283 11.642L8.27338 12.2401C9.3438 13.3627 9.65692 15.0434 9.07135 16.522L9.06165 16.5469C8.47952 18.0248 7.12539 18.9805 5.61141 18.9805H4.80469C3.92164 18.9805 3.20312 19.734 3.20312 20.6602V22.3398C3.20312 23.266 3.92164 24.0195 4.80469 24.0195H5.61141C7.12508 24.0195 8.47952 24.9752 9.06165 26.4538L9.07354 26.4833C9.65692 27.9566 9.3438 29.6373 8.27338 30.7599L7.70283 31.358C7.40034 31.6752 7.23393 32.0971 7.23393 32.5459C7.23393 32.9944 7.40034 33.4163 7.70283 33.7335L8.83549 34.9214C9.45985 35.5762 10.4758 35.5766 11.1005 34.9214L11.6708 34.323C12.7406 33.2014 14.3418 32.8723 15.751 33.4852L15.7716 33.494C17.1868 34.1068 18.0977 35.5274 18.0977 37.1149V37.9609C18.0977 38.8871 18.8162 39.6406 19.6992 39.6406H21.3008C22.1838 39.6406 22.9023 38.8871 22.9023 37.9609V37.1149C22.9023 36.3255 23.1279 35.5634 23.5545 34.9113C24.0547 34.1462 25.0516 33.9513 25.7811 34.4762C26.5106 35.0008 26.6964 36.0464 26.1959 36.8114C26.1546 36.8744 26.1055 36.9784 26.1055 37.1149V37.9609C26.1055 40.7396 23.9502 43 21.3008 43H19.6992C17.0498 43 14.8945 40.7396 14.8945 37.9609V37.1149C14.8945 36.8924 14.761 36.6907 14.5539 36.6011L14.5248 36.5883C14.3168 36.4978 14.0856 36.5411 13.9358 36.6985L13.3652 37.2969C11.4921 39.2614 8.44386 39.2614 6.57047 37.2969L5.43781 36.109C4.53036 35.1573 4.03081 33.892 4.03081 32.5459C4.03081 31.1999 4.53036 29.9345 5.43812 28.9828L6.00836 28.3844C6.1582 28.2273 6.19949 27.9848 6.11346 27.767L6.10033 27.7342C6.01587 27.519 5.82349 27.3789 5.61141 27.3789H4.80469C2.15523 27.3789 0 25.1185 0 22.3398V20.6602C0 17.8815 2.15523 15.6211 4.80469 15.6211H5.61141C5.82349 15.6211 6.01587 15.481 6.10126 15.2642L6.11315 15.2337C6.1998 15.0155 6.15851 14.773 6.00836 14.6156L5.43812 14.0175C3.56473 12.0527 3.56473 8.85576 5.43812 6.89098L6.57047 5.70339C7.47823 4.75168 8.68472 4.22743 9.96785 4.22743C11.2513 4.22743 12.4578 4.75168 13.3655 5.70339L13.9358 6.30145C14.0859 6.45892 14.3171 6.50223 14.5248 6.41168L14.5536 6.39889C14.761 6.30933 14.8945 6.10757 14.8945 5.88514V5.03906C14.8945 2.26036 17.0501 0 19.6992 0H21.3008C23.9502 0 26.1055 2.26036 26.1055 5.03906V5.88514C26.1055 6.10757 26.239 6.30933 26.4458 6.39889L26.4783 6.41299C26.6832 6.50223 26.9144 6.45892 27.0642 6.30145L27.6348 5.70339C28.5422 4.75135 29.7487 4.22743 31.0322 4.22743C32.3153 4.22743 33.5221 4.75135 34.4295 5.70339L35.5619 6.89098C37.4353 8.85576 37.4353 12.0527 35.5619 14.0172L34.9916 14.6156C34.8415 14.7727 34.8002 15.0152 34.8865 15.2333L34.8984 15.2635C34.9841 15.4807 35.1765 15.6211 35.3886 15.6211H36.1953C38.8448 15.6211 41 17.8815 41 20.6602Z" fill="#0384FA" stroke="#FCFCFE" stroke-width="1.2" mask="url(#path-1-inside-1_336_611)"/>
</g>
<defs>
<clipPath id="clip0_336_611">
<rect width="41" height="43" fill="white"/>
</clipPath>
</defs>
</svg>
