<svg width="46" height="46" viewBox="0 0 46 46" fill="none" xmlns="http://www.w3.org/2000/svg">
<g clip-path="url(#clip0_134_373)">
<path d="M39.4124 5.85818H38.8769C39.8975 4.19945 39.5207 1.97253 37.8827 0.759348C36.1178 -0.547717 33.6098 -0.126986 32.3781 1.71044L29.5979 5.85827H5.7139C3.75072 5.85827 2.15356 7.45269 2.15356 9.41249V32.136C2.15356 34.0958 3.75072 35.6902 5.7139 35.6902H19.5433L18.4984 40.0715H16.2431C14.7733 40.0715 13.5775 41.2651 13.5775 42.7324V43.288H10.7974C10.3106 43.288 9.91603 43.682 9.91603 44.1679C9.91603 44.6537 10.3106 45.0477 10.7974 45.0477H34.329C34.8157 45.0477 35.2103 44.6537 35.2103 44.1679C35.2103 43.682 34.8157 43.288 34.329 43.288H31.5488V42.7324C31.5488 41.2651 30.353 40.0715 28.8832 40.0715H26.6279L25.583 35.6902H39.4124C41.3756 35.6902 42.9728 34.0958 42.9728 32.136V27.136V9.4124C42.9728 7.4526 41.3756 5.85818 39.4124 5.85818ZM26.7844 21.3254C25.4064 22.2883 22.8249 20.9794 20.3596 22.2927C19.7581 19.1732 20.1373 16.2395 23.2683 15.5919C23.6729 15.5077 24.1086 15.4696 24.4794 15.477C25.5391 16.2619 26.611 17.0558 27.6677 17.8385C28.1304 19.1819 27.9567 20.5062 26.7844 21.3254ZM27.6726 11.8947L30.1674 13.7425L28.2488 16.0777C27.459 15.4927 26.78 14.9898 25.9901 14.4047C26.1541 14.16 27.5227 12.1183 27.6726 11.8947ZM33.8432 2.68906C34.5107 1.69302 35.8721 1.46127 36.8324 2.17261C37.7931 2.88403 37.9651 4.2518 37.2039 5.17834C35.8533 6.82212 32.6422 10.7304 31.2864 12.3805L28.6539 10.4306L33.8432 2.68906ZM29.786 42.7324V43.288H15.3402V42.7324C15.3402 42.2355 15.7453 41.8311 16.2431 41.8311H28.8831C29.381 41.8311 29.786 42.2355 29.786 42.7324ZM24.8159 40.0715H20.3103L21.3553 35.6902H23.771L24.8159 40.0715ZM41.2101 32.136C41.2101 33.1256 40.4037 33.9306 39.4124 33.9306C38.0134 33.9306 7.287 33.9306 5.71399 33.9306C4.72275 33.9306 3.91633 33.1256 3.91633 32.136V28.0158H6.43484C6.9216 28.0158 7.31617 27.6218 7.31617 27.136C7.31617 26.6501 6.9216 26.2562 6.43484 26.2562H3.91615V9.4124C3.91615 8.42287 4.72257 7.61783 5.71381 7.61783H28.4184C27.5741 8.87747 25.1108 12.5523 24.3306 13.7162C22.6034 13.7318 20.8791 14.3325 19.7503 15.648C18.2142 17.438 17.9443 20.2506 18.9482 24.0076C19.1197 24.65 19.9227 24.8802 20.4086 24.4169C22.6875 22.2431 25.5257 24.6142 28.0674 22.5606C29.6189 21.3068 29.9861 19.3137 29.4011 17.4498C30.1919 16.4873 36.6866 8.58264 37.4792 7.61783H39.4123C40.4035 7.61783 41.2099 8.42287 41.2099 9.4124V26.2561H13.4854C12.9986 26.2561 12.604 26.6501 12.604 27.1359C12.604 27.6217 12.9986 28.0157 13.4854 28.0157H41.2101V32.136Z" fill="#0384FA"/>
<path d="M9.7904 26.2731C9.36611 26.3597 9.08179 26.7258 9.08179 27.1363C9.08179 27.6866 9.58583 28.1081 10.135 27.9985C10.623 27.8996 10.9203 27.4302 10.8269 26.9638C10.7288 26.4826 10.2611 26.1785 9.7904 26.2731Z" fill="#0384FA"/>
</g>
<defs>
<clipPath id="clip0_134_373">
<rect width="45.1253" height="45.0478" fill="white"/>
</clipPath>
</defs>
</svg>
