<svg width="46" height="44" viewBox="0 0 46 44" fill="none" xmlns="http://www.w3.org/2000/svg">
<g clip-path="url(#clip0_337_432)">
<path d="M23.8307 20.7466C23.4839 20.4132 22.9224 20.4132 22.5756 20.7466C22.2297 21.0791 22.2297 21.6187 22.5756 21.9521C22.9224 22.2846 23.4839 22.2846 23.8307 21.9521C24.1767 21.6187 24.1767 21.0791 23.8307 20.7466Z" fill="#0384FA"/>
<path d="M35.1197 9.89535C33.3864 8.22959 30.5806 8.2295 28.8473 9.89535C27.1186 11.5569 27.1185 14.2611 28.8476 15.9239C30.5769 17.585 33.3905 17.5857 35.1197 15.9238C36.8527 14.2581 36.8531 11.5613 35.1197 9.89535ZM33.8652 14.718C32.8281 15.715 31.1397 15.715 30.102 14.7182C29.0646 13.7206 29.0645 12.0979 30.1018 11.101C31.1417 10.1016 32.8252 10.1014 33.8652 11.101C34.9051 12.1003 34.9053 13.7185 33.8652 14.718Z" fill="#0384FA"/>
<path d="M45.1557 0.249715C44.9815 0.082363 44.7438 -0.00834646 44.4966 0.000605128C44.2961 0.00751064 39.5208 0.191999 33.8444 2.12034C29.2958 3.66394 25.5044 5.87396 22.5756 8.68902C21.9193 9.31981 21.2806 9.9887 20.6695 10.6836C17.7736 9.04521 15.453 9.55894 13.986 10.3135C10.6081 12.051 8.51733 16.7686 8.51733 20.1429C8.5176 20.4876 8.73377 20.7986 9.06515 20.9304C9.17488 20.9742 9.29019 20.9954 9.40444 20.9954C9.63533 20.9954 9.86214 20.9087 10.0318 20.7457C11.8132 19.0336 14.0104 19.1406 14.7282 19.2313L15.0388 19.5299C14.4275 20.9281 13.935 22.3184 13.5739 23.6706C13.4435 24.1599 13.4875 24.6777 13.6813 25.1514C12.8273 25.5297 12.0033 26.0851 11.2859 26.7746C9.00262 28.9692 8.53898 34.3175 8.52035 34.5441C8.49995 34.7928 8.59379 35.0376 8.77732 35.214C8.94434 35.3745 9.17027 35.4637 9.40444 35.4637C9.42768 35.4637 9.45101 35.4629 9.47434 35.4611C9.7101 35.4433 15.2749 34.9977 17.5582 32.8032C18.2753 32.1139 18.8531 31.322 19.2467 30.5014C19.7684 30.6986 20.3054 30.7229 20.7883 30.604C22.1946 30.2569 23.6409 29.7837 25.0958 29.1961L25.4065 29.4946C25.5008 30.1846 25.6122 32.2964 23.8309 34.0084C23.5773 34.2522 23.5013 34.6189 23.6386 34.9374C23.7759 35.256 24.0993 35.4636 24.4581 35.4636C27.9689 35.4636 32.8772 33.4541 34.6849 30.2076C35.47 28.7978 36.0045 26.5674 34.2999 23.784C35.0225 23.1969 35.7185 22.5831 36.3751 21.952C39.304 19.137 41.6034 15.493 43.2094 11.1215C45.2158 5.66551 45.4077 1.07582 45.4149 0.883147C45.4237 0.646569 45.3298 0.417152 45.1557 0.249715ZM10.5005 18.3092C11.0515 15.7462 12.652 12.9338 14.8234 11.8168C16.2745 11.0705 17.8605 11.1436 19.5469 12.0309C18.1102 13.8469 16.8612 15.8035 15.8201 17.8696C15.8069 17.8618 15.6473 17.6688 15.3506 17.6045C15.2287 17.578 12.8817 17.0929 10.5005 18.3092ZM16.3037 31.5974C15.0841 32.7696 12.223 33.3879 10.4147 33.6403C10.6774 31.9022 11.3207 29.1524 12.5403 27.9803C13.2233 27.3238 14.0152 26.8261 14.8112 26.5458L17.7962 29.4148C17.5046 30.1798 16.9868 30.941 16.3037 31.5974ZM20.3476 28.9523C20.0909 29.0154 19.7936 28.9227 19.5726 28.7106C18.425 27.6076 17.9761 27.1762 17.8353 27.0409C17.577 26.7926 16.9435 26.1838 15.5444 24.839C15.3232 24.626 15.2267 24.3403 15.2923 24.094C15.5764 23.0306 15.948 21.9395 16.3998 20.8379L23.735 27.888C22.5887 28.3223 21.4537 28.6794 20.3476 28.9523ZM33.121 29.4031C31.9588 31.49 29.0328 33.0283 26.3662 33.5578C27.2164 32.0201 27.4038 30.0626 27.0932 28.8756C27.0211 28.5999 26.8339 28.4613 26.8235 28.445C28.973 27.4444 31.0086 26.2439 32.8983 24.8631C33.8214 26.4841 33.8974 28.0087 33.121 29.4031ZM35.1209 20.7464C34.3216 21.5145 33.4609 22.2566 32.5627 22.9521C30.4036 24.623 28.0271 26.0384 25.4916 27.1651L17.1519 19.1498C18.3242 16.7127 19.7968 14.4286 21.5352 12.3536C22.2593 11.4898 23.0314 10.6625 23.8303 9.89467C26.4581 7.36896 29.8495 5.35886 33.9131 3.91194L41.3456 11.0555C39.8403 14.961 37.7489 18.2206 35.1209 20.7464ZM41.9838 9.2574L35.7839 3.29854C39.1618 2.29017 42.1004 1.91258 43.5671 1.77686C43.4258 3.18686 43.0329 6.01121 41.9838 9.2574Z" fill="#0384FA"/>
<path d="M21.3215 35.2137C20.9749 34.8808 20.4133 34.881 20.067 35.2139L17.5585 37.6257C17.2122 37.9587 17.2123 38.4985 17.5587 38.8314C17.9052 39.1642 18.4669 39.1642 18.8132 38.8312L21.3217 36.4194C21.6679 36.0864 21.6679 35.5465 21.3215 35.2137Z" fill="#0384FA"/>
<path d="M8.77737 23.1575C8.43108 22.8245 7.86951 22.8245 7.52295 23.1573L5.01358 25.5683C4.66711 25.9011 4.66702 26.4409 5.01331 26.7739C5.35952 27.1067 5.92109 27.1071 6.26773 26.7741L8.7771 24.3631C9.12357 24.0303 9.12366 23.4905 8.77737 23.1575Z" fill="#0384FA"/>
<path d="M15.0493 36.4201C14.7031 36.0872 14.1413 36.0872 13.7949 36.42L7.78623 42.1942C7.43976 42.5271 7.43976 43.067 7.78614 43.3999C8.13234 43.7328 8.69409 43.733 9.04056 43.4L15.0492 37.6258C15.3957 37.2928 15.3957 36.753 15.0493 36.4201Z" fill="#0384FA"/>
<path d="M7.9531 36.4201C7.60681 36.0872 7.04506 36.0872 6.69868 36.42L0.690038 42.1942C0.34357 42.5271 0.34357 43.067 0.689949 43.3999C1.03615 43.7328 1.5979 43.733 1.94437 43.4L7.95301 37.6258C8.29948 37.2928 8.29948 36.753 7.9531 36.4201Z" fill="#0384FA"/>
<path d="M7.52244 29.1854C7.17615 28.8526 6.6144 28.8526 6.26802 29.1855L0.260262 34.9605C-0.0861177 35.2935 -0.0861177 35.8333 0.260351 36.1663C0.60673 36.4992 1.16839 36.4992 1.51477 36.1662L7.52252 30.3911C7.8689 30.0581 7.8689 29.5184 7.52244 29.1854Z" fill="#0384FA"/>
<path d="M27.5937 17.1291C27.2472 16.7962 26.6858 16.7962 26.3392 17.1291L25.085 18.3346C24.7386 18.6675 24.7386 19.2073 25.085 19.5403C25.4314 19.8732 25.993 19.8732 26.3395 19.5403L27.5937 18.3348C27.9401 18.0019 27.9401 17.4621 27.5937 17.1291Z" fill="#0384FA"/>
</g>
<defs>
<clipPath id="clip0_337_432">
<rect width="45.4153" height="43.6497" fill="white"/>
</clipPath>
</defs>
</svg>
