<svg width="61" height="45" viewBox="0 0 61 45" fill="none" xmlns="http://www.w3.org/2000/svg">
<path d="M60.1286 4.19485C58.7125 1.04871 57.1875 0 51.0875 0C47.3839 0 44.5518 2.47877 44.5518 5.72032C44.5518 7.43641 45.6411 9.05719 46.7304 10.7733C47.0572 11.4406 47.6018 12.108 47.9286 12.7754L48.3643 13.5381C49.3447 15.2542 49.9982 16.4936 49.9982 19.0678C49.9982 20.1165 49.7803 21.2606 49.2357 22.8813V22.9766L45.6411 32.4151L36.3057 9.2649C36.6216 9.22924 36.9375 9.19201 37.2536 9.15249C38.9965 9.15249 40.4125 7.81775 40.4125 6.29228C40.4125 4.6715 38.9964 3.43207 37.1446 3.43207C37.0357 3.43207 37.0357 3.43207 36.9267 3.43207C32.6785 4.00413 28.4303 4.00413 24.1821 3.43207C24.0732 3.43207 24.0732 3.43207 23.9642 3.43207C22.1124 3.43207 20.6963 4.6715 20.6963 6.29228C20.6964 7.81775 22.1125 9.15249 23.8554 9.15249C24.2203 9.20036 24.5891 9.24447 24.9591 9.28659L29.4107 19.1631L23.9643 33.1779L14.1599 9.16876C14.1964 9.16324 14.233 9.15823 14.2696 9.15249C16.0125 9.05719 17.4285 7.81775 17.4285 6.29228C17.4285 4.6715 16.0124 3.43207 14.1606 3.43207C14.0517 3.43207 14.0517 3.43207 13.9427 3.43207C10.457 4.00413 6.97128 4.00413 3.48558 3.43207C3.37668 3.43207 3.37668 3.43207 3.26767 3.43207C1.41611 3.43217 0 4.67161 0 6.29228C0 7.79105 1.36726 9.01287 3.06811 9.14561L16.4482 41.1864C17.2107 42.9978 18.8446 44.3325 21.0232 44.8093C21.5678 44.9046 22.0036 45 22.5482 45C25.2714 45 27.8857 43.3792 28.7571 41.0911L34.966 24.8834L41.5017 41.0911C42.0463 42.4258 43.1356 43.3792 44.3338 43.7606C45.4231 44.1419 46.6213 44.0466 47.7106 43.5698C49.1267 43.0932 50.216 42.0444 50.6517 40.805L58.7125 19.6397C60.5643 15.5402 61 11.9173 61 9.62914V8.10368C61 6.76904 60.7821 5.43429 60.1286 4.19485ZM23.9643 7.24569C23.3107 7.24569 22.875 6.86434 22.875 6.29228C22.875 5.81563 23.3107 5.33888 23.8554 5.33888C28.3215 6.00625 32.6786 6.00625 37.2536 5.33888C37.7982 5.33888 38.234 5.81553 38.234 6.29228C38.234 6.86434 37.7983 7.24569 37.1447 7.24569C37.0358 7.24569 37.0358 7.24569 36.9268 7.24569C36.2787 7.33297 35.6307 7.40523 34.9825 7.46592C34.8741 7.44631 34.7595 7.43641 34.6393 7.43641C31.6982 7.72244 28.7572 7.72244 25.8161 7.43641C25.8141 7.43641 25.8119 7.43662 25.8099 7.43662C25.2673 7.38218 24.7248 7.31878 24.1822 7.24569C24.0732 7.24569 24.0732 7.24569 23.9643 7.24569ZM2.17861 6.29228C2.17861 5.81563 2.6143 5.33888 3.15901 5.33888C6.86262 6.00625 10.5661 6.00625 14.2697 5.33888C14.8143 5.33888 15.2501 5.81553 15.2501 6.29228C15.2501 6.86434 14.8144 7.24569 14.1608 7.24569C14.0519 7.24569 14.0519 7.24569 13.9429 7.24569C13.4922 7.31962 13.0415 7.38364 12.5908 7.43849C12.5696 7.43766 12.5484 7.43641 12.5268 7.43641C12.3449 7.46185 12.1624 7.48531 11.9795 7.50742C9.43701 7.76801 6.89467 7.72275 4.35221 7.37468C4.2812 7.36331 4.21019 7.35299 4.1393 7.3411C4.12977 7.3411 4.12024 7.34183 4.11071 7.34193C3.90233 7.3118 3.69407 7.27999 3.4857 7.24579C3.3768 7.24579 3.3768 7.24579 3.26779 7.24579C2.6143 7.24569 2.17861 6.86434 2.17861 6.29228ZM58.7125 9.72456C58.7125 11.822 58.3857 15.2543 56.6429 19.0678L48.4733 40.233C48.1465 40.9957 47.4929 41.5677 46.6215 41.8538C46.0769 42.0445 45.5322 42.1398 44.9876 41.9491C44.334 41.7583 43.6805 41.1864 43.3537 40.4236L35.7287 21.7372C35.6198 21.3558 35.1841 21.0698 34.7483 21.0698C34.3126 21.0698 33.8769 21.3558 33.7679 21.7372L26.6875 40.4237C26.0339 42.2351 23.7464 43.3792 21.5679 42.9025C20.1518 42.6164 19.0625 41.7584 18.5179 40.519L5.56482 9.46115C6.61469 9.56637 7.66444 9.62925 8.7143 9.62925C9.80503 9.62925 10.8958 9.56178 11.9864 9.44895L23.0928 36.4195C23.2017 36.8008 23.6374 37.0868 24.0732 37.0868C24.5089 37.0868 24.9446 36.8008 25.0536 36.4195L31.5893 19.4491C31.6982 19.2584 31.6982 18.9725 31.5893 18.7817L27.4855 9.51861C28.4992 9.58827 29.5109 9.62925 30.5 9.62925C31.677 9.62925 32.8864 9.57221 34.1098 9.47586L44.7696 35.6568C44.8785 36.0381 45.3142 36.3242 45.75 36.3242C46.1858 36.3242 46.6214 36.0381 46.7304 35.6568L51.3054 23.7394C51.4143 23.6441 51.4143 23.6441 51.4143 23.5487C52.0679 21.7373 52.2857 20.3071 52.2857 19.1631C52.2857 16.1123 51.4143 14.5868 50.4339 12.7754L49.9982 12.0127C49.5625 11.3453 49.1268 10.5827 48.6911 9.91528C47.7107 8.48512 46.8393 7.05507 46.8393 5.81563C46.8393 3.33686 49.1268 2.00212 51.1964 2.00212C56.8607 2.00212 57.2964 2.95552 58.0589 4.95764C58.4946 5.91105 58.7125 6.95976 58.7125 8.10378V9.72456Z" fill="#0384FA"/>
</svg>
