<svg width="46" height="45" viewBox="0 0 46 45" fill="none" xmlns="http://www.w3.org/2000/svg">
<g clip-path="url(#clip0_134_328)">
<path d="M40.0024 41.9377H5.12293C2.29833 41.9377 0 39.6662 0 36.8746V7.6485C0 4.85692 2.29833 2.58545 5.12293 2.58545H40.0024C42.827 2.58545 45.1253 4.85692 45.1253 7.6485V36.8746C45.1253 39.6662 42.827 41.9377 40.0024 41.9377ZM5.12293 4.09359C3.13967 4.09359 1.52598 5.68842 1.52598 7.6485V36.8746C1.52598 38.8347 3.13967 40.4296 5.12293 40.4296H40.0024C41.9857 40.4296 43.5994 38.8347 43.5994 36.8746V7.6485C43.5994 5.68842 41.9857 4.09359 40.0024 4.09359H5.12293Z" fill="#0384FA"/>
<path d="M38.2387 30.4251H26.2493C25.8278 30.4251 25.4863 30.0877 25.4863 29.6711C25.4863 29.2549 25.8278 28.917 26.2493 28.917H38.2387C38.6598 28.917 39.0017 29.2549 39.0017 29.6711C39.0017 30.0877 38.6602 30.4251 38.2387 30.4251Z" fill="#0384FA"/>
<path d="M38.2387 35.8768H26.2493C25.8278 35.8768 25.4863 35.5393 25.4863 35.1227C25.4863 34.7066 25.8278 34.3687 26.2493 34.3687H38.2387C38.6598 34.3687 39.0017 34.7066 39.0017 35.1227C39.0017 35.5393 38.6602 35.8768 38.2387 35.8768Z" fill="#0384FA"/>
<path d="M38.2387 19.5213H26.2493C25.8278 19.5213 25.4863 19.1838 25.4863 18.7673C25.4863 18.3511 25.8278 18.0132 26.2493 18.0132H38.2387C38.6598 18.0132 39.0017 18.3511 39.0017 18.7673C39.0017 19.1838 38.6602 19.5213 38.2387 19.5213Z" fill="#0384FA"/>
<path d="M38.2387 24.9732H26.2493C25.8278 24.9732 25.4863 24.6358 25.4863 24.2192C25.4863 23.803 25.8278 23.4651 26.2493 23.4651H38.2387C38.6598 23.4651 39.0017 23.803 39.0017 24.2192C39.0017 24.6358 38.6602 24.9732 38.2387 24.9732Z" fill="#0384FA"/>
<path d="M44.3624 12.6825H0.762989C0.341472 12.6825 0 12.345 0 11.9284C0 11.5118 0.341472 11.1743 0.762989 11.1743H44.3624C44.7839 11.1743 45.1253 11.5118 45.1253 11.9284C45.1253 12.345 44.7839 12.6825 44.3624 12.6825Z" fill="#0384FA"/>
<path d="M10.9995 9.99475C9.69029 9.99475 8.625 8.94233 8.625 7.64838C8.625 6.35442 9.69029 5.302 10.9995 5.302C12.3088 5.302 13.3737 6.35442 13.3737 7.64838C13.3737 8.94233 12.3088 9.99475 10.9995 9.99475ZM10.9995 6.81014C10.5316 6.81014 10.151 7.18634 10.151 7.64838C10.151 8.11041 10.5316 8.48661 10.9995 8.48661C11.467 8.48661 11.8477 8.11041 11.8477 7.64838C11.8477 7.18634 11.467 6.81014 10.9995 6.81014Z" fill="#0384FA"/>
<path d="M5.50205 9.99475C4.19322 9.99475 3.12793 8.94233 3.12793 7.64838C3.12793 6.35442 4.19322 5.302 5.50205 5.302C6.81131 5.302 7.8766 6.35442 7.8766 7.64838C7.8766 8.94233 6.81131 9.99475 5.50205 9.99475ZM5.50205 6.81014C5.03455 6.81014 4.65391 7.18634 4.65391 7.64838C4.65391 8.11041 5.03455 8.48661 5.50205 8.48661C5.96998 8.48661 6.35062 8.11041 6.35062 7.64838C6.35062 7.18634 5.96998 6.81014 5.50205 6.81014Z" fill="#0384FA"/>
<path d="M16.4967 9.99475C15.1874 9.99475 14.1226 8.94233 14.1226 7.64838C14.1226 6.35442 15.1874 5.302 16.4967 5.302C17.8059 5.302 18.8712 6.35442 18.8712 7.64838C18.8712 8.94233 17.8059 9.99475 16.4967 9.99475ZM16.4967 6.81014C16.0288 6.81014 15.6485 7.18634 15.6485 7.64838C15.6485 8.11041 16.0292 8.48661 16.4967 8.48661C16.9646 8.48661 17.3452 8.11041 17.3452 7.64838C17.3452 7.18634 16.9646 6.81014 16.4967 6.81014Z" fill="#0384FA"/>
<path d="M20.4915 35.8769H6.64873C6.22721 35.8769 5.88574 35.5395 5.88574 35.1229V18.7673C5.88574 18.3511 6.22721 18.0132 6.64873 18.0132H20.4915C20.913 18.0132 21.2545 18.3511 21.2545 18.7673V35.1229C21.2545 35.5395 20.913 35.8769 20.4915 35.8769ZM7.41172 34.3688H19.7285V19.5213H7.41172V34.3688Z" fill="#0384FA"/>
</g>
<defs>
<clipPath id="clip0_134_328">
<rect width="45.1253" height="44.5979" fill="white"/>
</clipPath>
</defs>
</svg>
